<?xml version="1.0" encoding="iso-8859-1"?>
<!-- Generator: Adobe Illustrator 19.0.0, SVG Export Plug-In . SVG Version: 6.00 Build 0)  -->
<svg version="1.1" id="Layer_1" xmlns="http://www.w3.org/2000/svg" xmlns:xlink="http://www.w3.org/1999/xlink" x="0px" y="0px"
	 viewBox="0 0 445 445" style="enable-background:new 0 0 445 445;" xml:space="preserve">
<g>
	<g>
		<path d="M288.7,62.5c-57.9,0-111.3,33.9-138.5,87.2c-11-3.6-22.7-5.6-33.7-5.6C52.3,144.1,0,197.6,0,263.3s52.3,119.2,116.5,119.2
			h172.2v0c86.2,0,156.3-71.8,156.3-160S374.9,62.5,288.7,62.5z M288.7,362.5H116.5C63.3,362.5,20,318,20,263.3s43.3-99.2,96.5-99.2
			v0c11.2,0,23.9,2.7,34.9,7.4c5.1,2.1,10.9-0.2,13.1-5.2c22.5-50.9,71.2-83.8,124.2-83.8c75.2,0,136.3,62.8,136.3,140
			S363.9,362.5,288.7,362.5z"/>
	</g>
</g>
<g>
</g>
<g>
</g>
<g>
</g>
<g>
</g>
<g>
</g>
<g>
</g>
<g>
</g>
<g>
</g>
<g>
</g>
<g>
</g>
<g>
</g>
<g>
</g>
<g>
</g>
<g>
</g>
<g>
</g>
</svg>
