<?xml version="1.0" encoding="UTF-8"?>
<!DOCTYPE svg PUBLIC "-//W3C//DTD SVG 1.1//EN" "http://www.w3.org/Graphics/SVG/1.1/DTD/svg11.dtd">
<svg version="1.1" xmlns="http://www.w3.org/2000/svg" xmlns:xlink="http://www.w3.org/1999/xlink" x="0" y="0" width="570" height="830" viewBox="0, 0, 570, 830">
  <g id="Layer_1">
    <path d="M454.67,820.87 C458.03,809.48 463.545,774.7 468.85,737.87 L471.105,721.985 L493.84,826.495 L552.59,826.495 C552.59,826.495 531.34,643.995 526.135,604.62 C520.93,565.245 491.34,547.12 471.965,542.12 C452.59,537.12 372.185,511.75 372.185,511.75 L315.07,516.77 C315.07,516.77 252.59,538.995 236.34,542.12 C220.09,545.245 197.59,557.12 189.465,574.62 C181.34,592.12 132.02,682.735 132.02,682.735 L128.58,669.27 C123.815,646.595 120.07,626.225 119.55,621.495 C118.39,610.87 103.54,615.245 103.54,615.245 L60.52,637.46 C60.52,637.46 39.11,657.875 45.09,669.125 C51.065,680.375 64.465,747.745 68.215,769.62 C71.965,791.495 95.805,808.94 114.465,802.12 C146.965,790.245 212.09,692.505 212.09,692.505 L213.43,702.34 C219.935,749.865 228.135,805.81 232.59,820.87" fill="#656DA5"/>
    <path d="M132.02,682.735 C132.02,682.735 181.34,592.12 189.465,574.62 C197.59,557.12 220.09,545.245 236.34,542.12 C245.95,540.27 290.475,525.355 309.94,518.69 C309.765,518.755 306.05,527.635 306.05,527.635 C306.05,527.635 285.025,540.305 285.09,540.56 C251.025,549.31 221.13,558.785 207.9,573.685 C184.81,599.685 135.715,693.37 135.715,693.37 L132.02,682.735" fill="#C3C6DA"/>
    <path d="M372.185,521.495 L370.995,499.245 L372.185,484.62 L316.26,487.955 L316.26,499.245 L315.07,521.495 L320.3,585.575 L357.8,585.575 L372.185,521.495" fill="#F8D4B3"/>
    <path d="M316.26,492.03 L370.995,492.03 L371.685,516.12 C371.685,516.12 340.92,539.72 316.26,527.545 L315.665,516.715 L316.26,492.03" fill="#C79986"/>
    <path d="M344.46,755.87 L377.18,578.6 L377.18,513.32 L343.98,577.7 L311.08,518.17 L311.08,578.6 L342.8,755.87" fill="#FFFFFE"/>
    <path d="M335.68,565.86 L294.465,587.205 L306.965,521.495 L311.34,519" fill="#FFFFFE"/>
    <path d="M351.575,565.86 L392.795,587.205 L380.28,514.295" fill="#FFFFFE"/>
    <g>
      <path d="M40.04,468.045 C40.04,468.045 22.9,410.085 14.465,390.325 C6.025,370.56 17.225,359.935 27.25,367.12 C37.275,374.31 46.34,384.62 51.025,408.995 C55.715,433.37 58.215,462.035 58.215,462.035 L40.04,468.045" fill="#F8D4B3"/>
      <path d="M98.77,585.575 C98.77,585.575 99.655,615.87 108.31,633.37 L106.885,637.38 C99.725,647.455 87.385,660.72 69.36,666.375 L65.09,663.37 C65.09,663.37 56.965,608.37 47.59,594.62 C38.615,581.46 -8.63,532.89 6.445,508.375 L9.46,504.605 C9.46,504.605 10.315,492.48 19.4,485.255 L22.275,483.355 C22.275,483.355 36.65,463.37 59.775,462.12 C82.9,460.87 103.405,472.855 97.85,500.545 L97.345,502.765 C98.32,497.985 99.875,493.505 102.275,489.935 C112.59,474.62 125.09,472.745 123.215,484.935 C121.34,497.12 117.765,519.62 119.55,531.81 C121.34,543.995 119.55,575.245 93.215,588.995" fill="#F8D4B3"/>
      <path d="M393.84,494.17 C478.215,503.965 493.635,458.545 493.635,458.545 L504.465,501.875 C533.63,477.705 540.495,373.115 540.495,373.115 L551.96,279.51 C566.75,67.635 455.715,57.12 455.715,57.12 C432.275,4.62 261.025,-32.88 174.9,92.54 C120.475,171.8 130.445,282.58 130.445,282.58 L157.975,378.115 C157.975,378.115 179.08,456.045 159.275,492.71 C159.275,492.71 196.135,485.215 200.3,473.545 C200.3,473.545 211.95,497.71 286.955,492.71" fill="#7D5144"/>
      <path d="M455.715,57.12 C432.275,4.62 261.025,-32.88 174.9,92.54 C120.475,171.8 130.445,282.58 130.445,282.58 L133.675,293.785 C133.295,258.68 134.37,176.125 176.965,114.62 C265.22,-12.81 403,22.75 443.1,64.525 C443.1,64.525 506.595,86.25 536.675,140.275 C536.675,140.275 524.025,77.01 455.715,57.12" fill="#E0B79F"/>
    </g>
    <path d="M173.965,291.175 C173.965,291.175 163.865,271.58 144.87,277.52 C105.24,289.905 117.95,375.8 183.43,383.21" fill="#F8D4B3"/>
    <path d="M510.17,272.68 C516.775,305.235 510.5,358.865 496.135,401.87 C469.26,482.31 383.505,500.545 342.8,500.545 C302.09,500.545 216.34,482.31 189.465,401.87 C174.28,356.42 173.76,299.79 175.72,267.205 C175.72,267.205 184.465,185.245 199.465,162.745 C214.465,140.245 222.59,116.495 241.34,109.62 C260.09,102.745 313.84,83.995 338.215,90.87 C362.59,97.745 416.34,118.37 440.09,143.995 C463.84,169.62 499.63,220.735 510.17,272.68" fill="#F8D4B3"/>
    <path d="M298.385,305.01 C298.385,329.835 282.955,349.965 263.925,349.965 C244.89,349.965 229.455,329.835 229.455,305.01 C229.455,280.18 244.89,260.05 263.925,260.05 C282.955,260.05 298.385,280.18 298.385,305.01" fill="#FFFFFE"/>
    <g>
      <path d="M457.99,305.01 C457.99,329.835 442.56,349.965 423.525,349.965 C404.49,349.965 389.06,329.835 389.06,305.01 C389.06,280.18 404.49,260.05 423.525,260.05 C442.56,260.05 457.99,280.18 457.99,305.01" fill="#FFFFFE"/>
      <path d="M511.795,291.505 C511.795,291.505 521.895,271.91 540.895,277.85 C580.52,290.23 569.99,376.13 503.485,383.54" fill="#F8D4B3"/>
    </g>
    <path d="M506.135,181.445 C537.9,235.615 500.185,288.945 500.185,288.945 C484.465,168.115 354.465,114.62 354.465,114.62 C422.945,174.83 423.525,208.475 423.525,208.475 C307.9,214.725 250.06,132.355 250.06,132.355 C250.06,132.355 247.1,202.375 172.695,269.25 C172.695,269.25 161.965,222.29 177.59,187.28 C177.59,187.28 189.465,112.125 211.13,96.29 C232.8,80.455 322.8,57.955 342.8,65.455 C362.8,72.955 403.42,71.29 423.525,82.12 C443.635,92.955 506.135,181.445 506.135,181.445" fill="#7D5144"/>
    <path d="M293.015,311.495 C293.015,328.41 283.5,342.12 271.765,342.12 C260.03,342.12 250.515,328.41 250.515,311.495 C250.515,294.585 260.03,280.87 271.765,280.87 C283.5,280.87 293.015,294.585 293.015,311.495" fill="#1A1919"/>
    <path d="M393.84,311.495 C393.84,328.41 403.35,342.12 415.09,342.12 C426.825,342.12 436.34,328.41 436.34,311.495 C436.34,294.585 426.825,280.87 415.09,280.87 C403.35,280.87 393.84,294.585 393.84,311.495" fill="#1A1919"/>
    <path d="M343.84,472.49 C291.34,472.49 287.59,411.24 286.965,397.49 C286.965,397.49 342.8,414.99 398.635,397.49 C398.01,411.24 394.26,472.49 341.76,472.49" fill="#DF7370"/>
    <path d="M244.78,355.03 C244.78,362.8 231.67,369.1 215.505,369.1 C199.335,369.1 186.225,362.8 186.225,355.03 C186.225,347.255 199.335,340.955 215.505,340.955 C231.67,340.955 244.78,347.255 244.78,355.03" fill="#F1B1A2"/>
    <path d="M499.65,355.03 C499.65,362.8 486.54,369.1 470.37,369.1 C454.2,369.1 441.095,362.8 441.095,355.03 C441.095,347.255 454.2,340.955 470.37,340.955 C486.54,340.955 499.65,347.255 499.65,355.03" fill="#F1B1A2"/>
    <path d="M292.64,301.24 C292.64,304.705 289.83,307.515 286.365,307.515 C282.9,307.515 280.09,304.705 280.09,301.24 C280.09,297.775 282.9,294.965 286.365,294.965 C289.83,294.965 292.64,297.775 292.64,301.24" fill="#FFFFFE"/>
    <path d="M434.695,301.24 C434.695,304.705 431.885,307.515 428.42,307.515 C424.95,307.515 422.14,304.705 422.14,301.24 C422.14,297.775 424.95,294.965 428.42,294.965 C431.885,294.965 434.695,297.775 434.695,301.24" fill="#FFFFFE"/>
    <path d="M197.405,79.995 C251.99,98.315 288.235,98.52 308.55,95.725 C322.195,93.85 315.005,88.975 308.79,87.885 C244.835,76.675 225.755,52.115 225.755,52.115 L197.405,79.995" fill="#E0B79F"/>
    <path d="M378.525,513.685 C378.525,513.685 477.59,539.935 490.4,550.87 C503.215,561.81 514.465,575.87 514.465,575.87 C514.465,575.87 482.59,553.37 469.775,551.185 C456.965,548.995 382.59,528.685 382.59,528.685 L378.525,513.685" fill="#C3C6DA"/>
    <path d="M171.905,328.105 C176.23,340.49 180.535,350.25 172.065,353.21 C163.595,356.165 153.225,348.525 148.895,336.145 C144.57,323.76 147.93,311.325 156.4,308.365 C164.88,305.405 167.58,315.725 171.905,328.105" fill="#C79986"/>
    <path d="M511.965,325.87 C507.635,338.255 506.965,350.245 513.05,353.21 C521.125,357.135 531.895,348.525 536.22,336.145 C540.545,323.76 537.19,311.325 528.715,308.365 C520.24,305.405 516.29,313.49 511.965,325.87" fill="#C79986"/>
    <path d="M293.215,223.115 C280.09,213.115 246.965,208.115 228.84,229.99" fill-opacity="0" stroke="#1A1919" stroke-width="7" stroke-linecap="round" stroke-linejoin="round"/>
    <path d="M294.62,278.95 C280.155,248.46 219.56,248.325 228.215,320.245" fill-opacity="0" stroke="#1A1919" stroke-width="8" stroke-linecap="round" stroke-linejoin="round"/>
    <path d="M173.965,291.175 C173.965,291.175 163.865,271.58 144.87,277.52 C105.24,289.905 117.95,375.8 183.43,383.21 M145.58,300.675 C145.58,300.675 158.64,291.77 174.675,326.8" fill-opacity="0" stroke="#1A1919" stroke-width="7" stroke-linecap="round" stroke-linejoin="round"/>
    <path d="M175.72,267.205 C173.76,299.79 174.28,356.42 189.465,401.87 C216.34,482.31 301.51,502.54 342.215,502.54 C382.925,502.54 469.26,482.31 496.135,401.87 C510.5,358.865 511.745,305.86 510.17,272.68" fill-opacity="0" stroke="#1A1919" stroke-width="6" stroke-linecap="round" stroke-linejoin="round"/>
    <path d="M391.34,223.115 C404.465,213.115 437.59,208.115 455.715,229.99" fill-opacity="0" stroke="#1A1919" stroke-width="7" stroke-linecap="round" stroke-linejoin="round"/>
    <g>
      <path d="M391.41,281.9 C403.23,248.535 467.97,246.07 459.045,320.245" fill-opacity="0" stroke="#1A1919" stroke-width="8" stroke-linecap="round" stroke-linejoin="round"/>
      <path d="M511.795,291.505 C511.795,291.505 521.895,271.91 540.895,277.85 C580.52,290.23 569.99,376.13 503.485,383.54 M539.805,301.005 C539.805,301.005 526.75,292.1 510.715,327.13 M216.34,298.995 L227.37,305.87 M459.885,305.87 L474.67,298.995 M342.8,378.115 L342.8,368.115 M506.135,181.445 C537.9,235.615 500.185,288.945 500.185,288.945 C484.465,168.115 354.465,114.62 354.465,114.62 C422.945,174.83 423.525,208.475 423.525,208.475 C307.9,214.725 250.06,132.355 250.06,132.355 C250.06,132.355 247.1,202.375 172.695,269.25 C172.695,269.25 161.965,222.29 177.59,187.28 M131.545,286.38 C131.545,286.38 120.475,171.8 174.9,92.54 C261.025,-32.88 432.275,4.62 455.715,57.12 C455.715,57.12 566.39,70.555 551.6,282.43 M157.975,378.115 C157.975,378.115 179.08,456.045 159.275,492.71 C159.275,492.71 196.135,485.215 200.3,473.545 C200.3,473.545 211.95,498.995 286.955,493.995 M540.495,373.115 C540.495,373.115 533.63,477.705 504.465,501.875 L493.635,458.545 C493.635,458.545 478.215,505.25 393.84,495.455 M65.09,663.37 C65.09,663.37 56.965,608.37 47.59,594.62 C38.215,580.87 -12.91,528.495 8.84,505.245 C26.965,485.87 68.84,490.51 72.59,501.875 C76.215,512.86 76.34,536.495 63.84,540.245 C51.34,543.995 35.78,545.87 38.56,535.245 C41.34,524.62 56.34,520.245 56.34,520.245 M9.46,504.605 C9.46,504.605 10.715,486.81 26.34,481.495 C41.965,476.185 71.025,474.62 80.4,483.685 C87.245,490.3 99.065,520.58 74.715,531.81 M97.275,537.435 C97.275,537.435 91.965,505.245 102.275,489.935 C112.59,474.62 125.09,472.745 123.215,484.935 C121.34,497.12 117.765,519.62 119.55,531.81 C121.34,543.995 119.55,575.245 93.215,588.995 M95.91,525.56 C95.91,525.56 73.525,538.685 78.525,568.06 M22.275,483.355 C22.275,483.355 36.65,463.37 59.775,462.12 C82.9,460.87 103.405,472.855 97.85,500.545 M40.04,468.045 C40.04,468.045 22.9,410.085 14.465,390.325 C6.025,370.56 17.225,359.935 27.25,367.12 C37.275,374.31 46.34,384.62 51.025,408.995 C55.715,433.37 58.215,462.035 58.215,462.035 M98.77,585.575 C98.77,585.575 99.655,615.87 108.31,633.37 M103.54,615.245 C103.54,615.245 118.39,610.87 119.55,621.495 C120.715,632.12 138.215,721.985 146.965,738.995 M114.465,624.62 C114.465,624.62 95.91,666.495 55.09,668.995 M60.52,637.46 C60.52,637.46 39.11,657.875 45.09,669.125 C51.065,680.375 64.465,747.745 68.215,769.62 C71.965,791.495 95.805,808.94 114.465,802.12 C146.965,790.245 212.09,692.505 212.09,692.505 M315.07,516.77 C315.07,516.77 252.59,538.995 236.34,542.12 C220.09,545.245 197.59,557.12 189.465,574.62 C181.34,592.12 132.02,682.735 132.02,682.735 M372.185,511.75 C372.185,511.75 452.59,537.12 471.965,542.12 C491.34,547.12 520.93,565.245 526.135,604.62 C531.34,643.995 552.59,826.495 552.59,826.495 M203.84,629.62 C203.84,629.62 224.465,793.37 232.59,820.87 M483.42,629.62 C483.42,629.62 462.795,793.37 454.67,820.87 M471.105,721.985 L493.84,826.495 M311.08,518.17 L343.98,577.7 L377.18,513.32 M335.68,565.86 L294.465,587.205 L306.965,521.495 M311.08,578.6 L342.8,755.87 M294.62,523.88 L260.995,577.7 L277.81,593.37 L258.84,614.355 L331.34,751.495 M380.28,514.295 L392.795,587.205 L351.575,565.86 M377.18,578.6 L344.46,755.87 M390.165,517.395 L426.26,577.7 L409.45,593.37 L428.42,614.355 L355.92,751.495 M315.07,521.495 L316.55,500.875 M372.185,521.495 L371.34,501.08 M343.84,472.49 C291.34,472.49 287.59,411.24 286.965,397.49 C286.965,397.49 342.8,414.99 398.635,397.49 C398.01,411.24 394.26,472.49 341.76,472.49" fill-opacity="0" stroke="#1A1919" stroke-width="7" stroke-linecap="round" stroke-linejoin="round"/>
    </g>
  </g>
</svg>
